<?xml version="1.0" encoding="UTF-8"?><svg id="a" xmlns="http://www.w3.org/2000/svg" viewBox="0 0 744.19 142.21"><rect width="744.19" height="142.21" style="fill:#ccc;"/><g id="b"><g style="isolation:isolate;"><g style="isolation:isolate;"><g style="isolation:isolate;"><text transform="translate(60.87 22.17)" style="font-family:Consolas, Consolas; font-size:12px; isolation:isolate;"><tspan x="0" y="0">main</tspan></text></g></g></g><g style="isolation:isolate;"><g style="isolation:isolate;"><g style="isolation:isolate;"><text transform="translate(559.55 117.16)" style="font-family:Consolas, Consolas; font-size:12px; isolation:isolate;"><tspan x="0" y="0">feature-a</tspan></text></g></g></g></g><g id="c"><line x1="672.1" y1="54.37" x2="672.1" y2="105.37" style="fill:none; stroke:#000; stroke-miterlimit:10;"/><line x1="559.5" y1="42.87" x2="635.1" y2="117.37" style="fill:none; stroke:#000; stroke-miterlimit:10;"/><line x1="109.6" y1="42.37" x2="185.1" y2="42.37" style="fill:none; stroke:#000; stroke-miterlimit:10;"/><line x1="259.6" y1="42.37" x2="335.1" y2="42.37" style="fill:none; stroke:#000; stroke-miterlimit:10;"/><line x1="409.6" y1="42.37" x2="485.1" y2="42.37" style="fill:none; stroke:#000; stroke-miterlimit:10;"/><line x1="559.6" y1="42.37" x2="565.6" y2="42.37" style="fill:none; stroke:#000; stroke-miterlimit:10;"/><line x1="578.3" y1="42.37" x2="622.75" y2="42.37" style="fill:none; stroke:#000; stroke-dasharray:12.7 12.7; stroke-miterlimit:10;"/><line x1="629.1" y1="42.37" x2="635.1" y2="42.37" style="fill:none; stroke:#000; stroke-miterlimit:10;"/><g id="d"><path d="M647.1,54.65c-6.77,0-12.28-5.51-12.28-12.28s5.51-12.28,12.28-12.28h50c6.77,0,12.28,5.51,12.28,12.28s-5.51,12.28-12.28,12.28h-50Z" style="fill:#7ac943;"/><path d="M697.1,30.3c6.65,0,12.07,5.41,12.07,12.07s-5.41,12.07-12.07,12.07h-50c-6.65,0-12.07-5.41-12.07-12.07s5.41-12.07,12.07-12.07h50M697.1,29.87h-50c-6.9,0-12.5,5.6-12.5,12.5h0c0,6.9,5.6,12.5,12.5,12.5h50c6.9,0,12.5-5.6,12.5-12.5h0c0-6.9-5.6-12.5-12.5-12.5h0Z"/><g style="isolation:isolate;"><g style="isolation:isolate;"><g style="isolation:isolate;"><text transform="translate(649 45.47)" style="fill:#fff; font-family:Consolas, Consolas; font-size:12px; isolation:isolate;"><tspan x="0" y="0">907d798</tspan></text></g></g></g></g><g id="e"><path d="M647.1,129.65c-6.77,0-12.28-5.51-12.28-12.28s5.51-12.28,12.28-12.28h50c6.77,0,12.28,5.51,12.28,12.28s-5.51,12.28-12.28,12.28h-50Z" style="fill:#3fa9f5;"/><path d="M697.1,105.3c6.65,0,12.07,5.41,12.07,12.07s-5.41,12.07-12.07,12.07h-50c-6.65,0-12.07-5.41-12.07-12.07s5.41-12.07,12.07-12.07h50M697.1,104.87h-50c-6.9,0-12.5,5.6-12.5,12.5h0c0,6.9,5.6,12.5,12.5,12.5h50c6.9,0,12.5-5.6,12.5-12.5h0c0-6.9-5.6-12.5-12.5-12.5h0Z"/><g style="isolation:isolate;"><g style="isolation:isolate;"><g style="isolation:isolate;"><text transform="translate(649 120.47)" style="fill:#fff; font-family:Consolas, Consolas; font-size:12px; isolation:isolate;"><tspan x="0" y="0">907d798</tspan></text></g></g></g></g><g id="f"><path d="M497.1,54.65c-6.77,0-12.28-5.51-12.28-12.28s5.51-12.28,12.28-12.28h50c6.77,0,12.28,5.51,12.28,12.28s-5.51,12.28-12.28,12.28h-50Z" style="fill:#3fa9f5;"/><path d="M547.1,30.3c6.65,0,12.07,5.41,12.07,12.07s-5.41,12.07-12.07,12.07h-50c-6.65,0-12.07-5.41-12.07-12.07s5.41-12.07,12.07-12.07h50M547.1,29.87h-50c-6.9,0-12.5,5.6-12.5,12.5h0c0,6.9,5.6,12.5,12.5,12.5h50c6.9,0,12.5-5.6,12.5-12.5h0c0-6.9-5.6-12.5-12.5-12.5h0Z"/><g style="isolation:isolate;"><g style="isolation:isolate;"><g style="isolation:isolate;"><text transform="translate(499.01 45.47)" style="fill:#fff; font-family:Consolas, Consolas; font-size:12px; isolation:isolate;"><tspan x="0" y="0">3061abf</tspan></text></g></g></g></g><g id="g"><path d="M347.1,54.65c-6.77,0-12.28-5.51-12.28-12.28s5.51-12.28,12.28-12.28h50c6.77,0,12.28,5.51,12.28,12.28s-5.51,12.28-12.28,12.28h-50Z" style="fill:#3fa9f5;"/><path d="M397.1,30.3c6.65,0,12.07,5.41,12.07,12.07s-5.41,12.07-12.07,12.07h-50c-6.65,0-12.07-5.41-12.07-12.07s5.41-12.07,12.07-12.07h50M397.1,29.87h-50c-6.9,0-12.5,5.6-12.5,12.5h0c0,6.9,5.6,12.5,12.5,12.5h50c6.9,0,12.5-5.6,12.5-12.5h0c0-6.9-5.6-12.5-12.5-12.5h0Z"/><g style="isolation:isolate;"><g style="isolation:isolate;"><g style="isolation:isolate;"><text transform="translate(349.01 45.47)" style="fill:#fff; font-family:Consolas, Consolas; font-size:12px; isolation:isolate;"><tspan x="0" y="0">c18d331</tspan></text></g></g></g></g><g id="h"><path d="M197.1,54.65c-6.77,0-12.28-5.51-12.28-12.28s5.51-12.28,12.28-12.28h50c6.77,0,12.28,5.51,12.28,12.28s-5.51,12.28-12.28,12.28h-50Z" style="fill:#3fa9f5;"/><path d="M247.1,30.3c6.65,0,12.07,5.41,12.07,12.07s-5.41,12.07-12.07,12.07h-50c-6.65,0-12.07-5.41-12.07-12.07s5.41-12.07,12.07-12.07h50M247.1,29.87h-50c-6.9,0-12.5,5.6-12.5,12.5h0c0,6.9,5.6,12.5,12.5,12.5h50c6.9,0,12.5-5.6,12.5-12.5h0c0-6.9-5.6-12.5-12.5-12.5h0Z"/><g style="isolation:isolate;"><g style="isolation:isolate;"><g style="isolation:isolate;"><text transform="translate(199.01 45.47)" style="fill:#fff; font-family:Consolas, Consolas; font-size:12px; isolation:isolate;"><tspan x="0" y="0">25da765</tspan></text></g></g></g></g><g id="i"><path d="M47.1,54.65c-6.77,0-12.28-5.51-12.28-12.28s5.51-12.28,12.28-12.28h50c6.77,0,12.28,5.51,12.28,12.28s-5.51,12.28-12.28,12.28c0,0-50,0-50,0Z" style="fill:#3fa9f5;"/><path d="M97.1,30.3c6.65,0,12.07,5.41,12.07,12.07s-5.41,12.07-12.07,12.07h-50c-6.65,0-12.07-5.41-12.07-12.07s5.41-12.07,12.07-12.07h50M97.1,29.87h-50c-6.9,0-12.5,5.6-12.5,12.5h0c0,6.9,5.6,12.5,12.5,12.5h50c6.9,0,12.5-5.6,12.5-12.5h0c0-6.9-5.6-12.5-12.5-12.5h0Z"/><g style="isolation:isolate;"><g style="isolation:isolate;"><g style="isolation:isolate;"><text transform="translate(49.01 45.47)" style="fill:#fff; font-family:Consolas, Consolas; font-size:12px; isolation:isolate;"><tspan x="0" y="0">7f6df36</tspan></text></g></g></g></g></g></svg>
